<svg version="1.1" xmlns="http://www.w3.org/2000/svg" style="display: block;" viewBox="0 0 2048 2048" width="1024" height="1024" preserveAspectRatio="none">
<path transform="translate(0,0)" fill="rgb(171,114,0)" d="M 948.514 100.404 C 983.095 95.3522 1038.43 104.333 1072.14 114.618 C 1155.27 140.034 1224.91 197.423 1265.75 274.168 C 1317.28 371.592 1307.53 480.322 1276.18 582.426 C 1347.61 506.908 1415.27 456.127 1521.46 444.078 C 1691.11 424.828 1861.5 538.664 1876.23 715.777 C 1881.35 777.321 1862.19 857.457 1822.26 905.792 C 1830.91 913.333 1838.43 921.704 1846.05 930.202 C 2019.19 1123.59 1881.03 1421.25 1633 1449.63 C 1497.27 1465.15 1382.94 1414.06 1276.73 1332.35 C 1296.94 1364.97 1317.57 1397.8 1340.51 1428.59 C 1410.29 1521.91 1498.36 1600.02 1599.35 1658.16 C 1623.32 1671.99 1647.84 1684.84 1672.84 1696.7 C 1729.76 1723.95 1779.79 1738.09 1746.99 1816.6 C 1732.82 1850.51 1716.9 1884.12 1696.21 1914.74 C 1685.79 1930.16 1671.13 1941.01 1652.36 1943.54 C 1643.36 1944.76 1634.21 1944.21 1625.41 1941.93 C 1610.33 1937.89 1588.81 1926.31 1574.7 1919.21 C 1514.28 1888.83 1460.88 1852.76 1406.98 1812.22 C 1374.11 1788.46 1336.81 1754.85 1307.23 1726.94 C 1193.17 1619.29 1119.8 1506.59 1055.53 1365.08 C 1053.98 1384.46 1043.94 1424.24 1039.08 1444.53 C 1015.92 1541.36 982.46 1633.67 908.266 1703.39 C 840.028 1767.52 756.086 1798.8 662.482 1795.95 C 577.793 1793.38 499.312 1762.84 440.453 1700.62 C 383.942 1640.88 362.75 1565.9 365.031 1485.64 C 347.353 1480.43 333.064 1476.73 315.726 1470.05 C 265.539 1450.72 221.52 1418.16 188.341 1375.83 C 137.346 1310.45 117.557 1228.33 127.91 1146.62 C 138.754 1061.08 183.47 983.458 252.036 931.164 C 314.089 883.528 387.453 863.002 464.85 861.734 C 485.615 861.393 502.022 861.263 522.787 863.973 C 458.993 821.643 404.267 784.764 363.703 716.9 C 319.628 643.218 309.627 556.387 330.965 473.67 C 374.451 305.094 541.971 219.562 706.455 262.98 C 757.956 165.864 838.869 110.767 948.514 100.404 z"/>
<path transform="translate(0,0)" fill="rgb(240,201,10)" d="M 1057.79 1172.26 C 1042.14 1160.53 1024.77 1160.88 1018.29 1181.95 C 1009.23 1211.44 1003.71 1243.09 997.33 1273.33 L 975.331 1373.86 C 944.749 1511.19 906.498 1653.53 755.798 1703.79 C 611.776 1751.82 449.398 1667 443.535 1506.98 C 442.765 1485.97 445.336 1463.6 441.074 1443.24 C 436.297 1425.99 418.022 1418.8 402.734 1415.32 C 317.119 1395.84 243.733 1346.17 216.686 1259.17 C 197.47 1197.36 203.834 1130.42 234.354 1073.34 C 249.311 1045.14 269.691 1020.18 294.323 999.881 C 386.719 922.646 511.041 935.253 622.178 949.884 C 682.636 958.138 742.94 967.479 803.062 977.902 C 816.901 980.232 874.512 991.85 885.336 988.03 C 889.429 986.557 892.739 983.471 894.494 979.491 C 903.623 959.05 862.368 944.87 848.025 938.067 L 790.968 911.357 C 743.157 889.411 695.722 866.653 648.685 843.094 C 561.543 798.394 456.862 739.236 417.368 644.651 C 394.045 587.932 393.951 524.318 417.108 467.531 C 452.404 381.074 538.211 326.112 631.505 330.204 C 664.869 331.453 694.314 339.243 726.642 345.125 C 755.097 350.302 769.407 311.238 781.652 290.277 C 897.07 92.7076 1196.07 175.636 1220.72 393.999 C 1228.04 458.824 1214.64 516.328 1197.95 578.912 C 1173.47 671.997 1139.06 762.278 1107.81 853.23 C 1105.1 861.128 1095.99 883.795 1100.14 891.015 C 1114.36 915.757 1138.74 878.553 1147.44 867.508 C 1162.11 848.71 1176.53 829.715 1190.68 810.53 C 1250.48 730.925 1348.36 600.033 1434.68 552.59 C 1495.08 519.242 1566.37 511.651 1632.43 531.531 C 1788.53 577.929 1845.5 742.066 1754.21 871.634 C 1743.55 886.77 1729.22 907.946 1740.43 926.274 C 1750.37 942.511 1765.62 956.081 1778.63 970.43 C 1794.06 987.243 1807.38 1005.87 1818.31 1025.9 C 1858.91 1099.61 1848.23 1197.12 1800.51 1264.91 C 1778.56 1296.1 1748.42 1323.05 1714.84 1341.15 C 1679.99 1359.71 1641.45 1370.32 1602 1372.2 C 1499.95 1378.08 1420.96 1335.92 1339 1279.91 C 1300.91 1253.41 1263.71 1225.65 1227.45 1196.68 C 1211.63 1184.05 1158.52 1137.65 1141.73 1133.04 C 1136.45 1131.59 1130.93 1131.61 1126.12 1134.45 C 1120.67 1137.67 1118.63 1142.49 1117.02 1148.36 L 1116.66 1149.71 C 1141.48 1220.82 1172.9 1297.52 1208.78 1363.6 C 1301.16 1537.13 1446.8 1676.42 1624.26 1760.98 C 1639.18 1768.18 1662.1 1777.65 1675.67 1785.11 C 1664.09 1812.33 1651.78 1834.93 1637.84 1861.03 C 1432.32 1758.49 1270.3 1608.57 1161.39 1405.5 C 1118.2 1324.96 1091.33 1256.02 1057.79 1172.26 z"/>
<path transform="translate(0,0)" fill="rgb(255,255,255)" d="M 1057.79 1172.26 C 1054.15 1156.09 1030.54 1082.22 1021.06 1073.76 C 1012.14 1071.89 986.212 1090.24 977.547 1095.66 L 920.374 1131.66 C 839.623 1183.71 759.545 1236.8 680.159 1290.92 C 654.066 1308.58 547.795 1383.77 522.809 1387.85 C 518.915 1388.48 515.802 1387.67 512.6 1385.48 C 503.574 1372.12 539.03 1336.78 548.701 1327.15 C 641.664 1234.57 755.536 1157.07 867.388 1088.81 L 949.263 1039.05 C 963.508 1030.5 981.105 1022.12 993.72 1011.36 C 997.158 1008.43 999.249 1004.68 999.196 1000.11 C 999.023 985.242 976.656 927.746 970.6 910.254 C 928.481 788.607 884.696 667.902 832.618 550.083 C 824.562 531.858 776.296 433.885 779.185 422.382 C 779.81 419.894 780.991 418.449 783.247 417.192 C 786.292 415.495 790.237 416.319 793.231 417.71 C 810.369 425.67 831.779 456.797 843.235 472.546 C 924.309 584.001 976.706 723.765 1019.22 854.196 L 1044.37 934.045 C 1048.55 947.486 1052.78 960.817 1057.04 974.394 C 1059.86 987.49 1071.88 984.465 1083 983.255 C 1108.35 980.497 1134.38 977.461 1159.81 974.509 C 1249.37 964.375 1338.83 953.368 1428.17 941.49 C 1487.3 933.496 1546.68 923.129 1606.08 917.674 C 1615.48 916.811 1634.29 914.05 1642.75 918.45 C 1645 919.619 1647.33 921.51 1647.87 924.092 C 1648.48 927.035 1647.74 929.487 1646.17 931.962 C 1636.75 946.806 1602.78 957.383 1586.27 963.324 C 1470.85 1004.87 1346.18 1019.1 1224.78 1031.97 C 1199.15 1034.68 1173.51 1037.82 1147.86 1040.13 C 1130.68 1041.68 1110.97 1041.63 1094.28 1045.78 C 1090.24 1046.78 1084.71 1048.62 1082.75 1052.66 C 1079.82 1058.7 1111.64 1136.52 1116.66 1149.71 C 1141.48 1220.82 1172.9 1297.52 1208.78 1363.6 C 1301.16 1537.13 1446.8 1676.42 1624.26 1760.98 C 1639.18 1768.18 1662.1 1777.65 1675.67 1785.11 C 1664.09 1812.33 1651.78 1834.93 1637.84 1861.03 C 1432.32 1758.49 1270.3 1608.57 1161.39 1405.5 C 1118.2 1324.96 1091.33 1256.02 1057.79 1172.26 z"/>
<path transform="translate(0,0)" fill="rgb(240,201,10)" d="M 4.23359 2.69595 C 8.30259 2.96997 13.7352 2.96121 16.5368 5.79824 C 16.7308 9.40863 16.583 8.34769 13.8341 12.0808 L 11.0095 13.2847 C 6.94558 12.8856 8.71588 13.5953 5.50203 11.0805 C 3.66119 7.32459 3.84139 7.02431 4.23359 2.69595 z"/>
</svg>
